<?xml version="1.0" standalone="no"?>
<!DOCTYPE svg PUBLIC "-//W3C//DTD SVG 20010904//EN"
 "http://www.w3.org/TR/2001/REC-SVG-20010904/DTD/svg10.dtd">
<svg version="1.0" xmlns="http://www.w3.org/2000/svg"
 width="131.000000pt" height="151.000000pt" viewBox="0 0 131.000000 151.000000"
 preserveAspectRatio="xMidYMid meet">

<g transform="translate(0.000000,151.000000) scale(0.100000,-0.100000)"
fill="#000000" stroke="none">
<path d="M368 1453 c-2 -4 -1 -73 3 -153 6 -121 5 -146 -7 -153 -8 -4 -14 -15
-14 -23 0 -8 -16 -31 -35 -51 -41 -42 -43 -55 -13 -75 21 -14 22 -23 24 -119
1 -104 18 -225 35 -245 5 -6 16 -60 25 -120 12 -83 21 -115 37 -132 22 -24 69
-52 84 -52 4 1 -9 10 -29 21 -21 10 -44 29 -53 42 -13 20 -49 216 -41 225 2 1
34 -2 71 -9 114 -20 307 -3 406 36 14 5 14 -8 -6 -122 -11 -71 -25 -135 -29
-142 -16 -25 -98 -53 -184 -61 l-87 -9 86 3 c89 4 160 26 188 60 7 9 24 75 37
148 12 72 27 134 33 137 13 8 44 196 36 220 -10 31 11 110 35 129 l22 18 -40
36 c-22 20 -43 45 -46 56 -10 32 -66 51 -179 64 -75 8 -130 8 -198 0 -52 -5
-96 -9 -98 -7 -1 2 -6 66 -10 142 -6 131 -7 138 -28 141 -11 2 -23 0 -25 -5z
m480 -303 c41 -15 37 -31 -14 -49 -55 -21 -363 -21 -418 0 -47 17 -60 39 -19
31 15 -3 31 -10 35 -15 10 -16 244 -31 314 -21 49 7 59 12 59 29 0 12 -9 22
-25 26 -38 11 -281 10 -318 0 -17 -5 -32 -6 -32 -1 0 15 42 18 215 16 106 -2
182 -8 203 -16z m-428 -126 c28 -10 99 -19 185 -24 l140 -8 -150 3 c-129 2
-158 5 -207 25 -44 17 -58 28 -58 43 0 20 0 20 23 -1 12 -12 43 -29 67 -38z
m115 -96 c111 -14 251 -1 337 32 28 11 54 18 56 15 2 -2 1 -26 -3 -54 -6 -46
-10 -51 -45 -65 -21 -8 -78 -22 -126 -32 -104 -19 -267 -14 -351 11 -56 17
-56 16 -67 102 l-6 41 55 -19 c30 -10 97 -24 150 -31z m387 -110 c-3 -24 -10
-68 -16 -98 l-11 -55 -80 -24 c-69 -22 -100 -25 -225 -25 -84 0 -162 5 -186
12 l-41 12 -13 78 c-6 42 -14 89 -17 104 l-5 27 63 -21 c53 -17 90 -21 214
-21 134 -1 158 2 230 25 44 14 83 26 87 27 3 0 4 -18 0 -41z"/>
<path d="M817 1130 c6 -22 20 -25 43 -10 11 7 9 11 -13 19 -37 14 -36 14 -30
-9z"/>
<path d="M795 901 c-6 -11 9 -23 19 -14 9 9 7 23 -3 23 -6 0 -12 -4 -16 -9z"/>
<path d="M485 889 c-10 -15 3 -25 16 -12 7 7 7 13 1 17 -6 3 -14 1 -17 -5z"/>
<path d="M630 871 c0 -6 4 -13 10 -16 6 -3 7 1 4 9 -7 18 -14 21 -14 7z"/>
<path d="M661 864 c0 -11 3 -14 6 -6 3 7 2 16 -1 19 -3 4 -6 -2 -5 -13z"/>
<path d="M583 771 c-40 -25 -51 -62 -29 -97 34 -51 108 -55 146 -7 26 33 25
56 -2 87 -32 36 -75 42 -115 17z m88 -8 c17 -10 32 -28 36 -40 6 -27 -20 -72
-42 -74 -39 -3 -52 -2 -73 5 -26 9 -43 44 -36 73 6 20 50 52 72 53 8 0 27 -8
43 -17z"/>
<path d="M528 323 c7 -3 16 -2 19 1 4 3 -2 6 -13 5 -11 0 -14 -3 -6 -6z"/>
</g>
</svg>
